<svg xmlns="http://www.w3.org/2000/svg" width="1440" height="976" viewBox="0 0 1440 976">
<rect x="0" y="0" width="1440" height="976" rx="0" fill="#F1F3F5"/>
<rect x="0" y="0" width="1440" height="76" rx="0" fill="#FFFFFF"/>
<line x1="0" y1="76" x2="1440" y2="76" stroke="#D7DBE0" stroke-width="1"/>
<text x="48" y="32" font-family="'JetBrains Mono', 'SF Mono', Consolas, monospace" font-size="10" font-weight="500" fill="#8B929C" text-anchor="start" letter-spacing="1.6">VIGIL / WIREFRAME 04</text>
<text x="48" y="55" font-family="'Inter', 'Helvetica Neue', Arial, sans-serif" font-size="19" font-weight="700" fill="#1A1D22" text-anchor="start">Monitor detail</text>
<text x="1392" y="47" font-family="'Inter', 'Helvetica Neue', Arial, sans-serif" font-size="12" font-weight="400" fill="#8B929C" text-anchor="end">Drill-down — US-10, US-11, US-12</text>
<g transform="translate(0,76)">
<rect x="0" y="0" width="1440" height="900" rx="0" fill="#F1F3F5"/>
<rect x="0" y="0" width="1440" height="64" rx="0" fill="#FFFFFF"/><line x1="0" y1="64" x2="1440" y2="64" stroke="#D7DBE0" stroke-width="1"/><circle cx="52" cy="32" r="5" fill="#3B62D6"/><text x="66" y="37" font-family="'Inter', 'Helvetica Neue', Arial, sans-serif" font-size="17" font-weight="700" fill="#1A1D22" text-anchor="start">Vigil</text><text x="112" y="37" font-family="'JetBrains Mono', 'SF Mono', Consolas, monospace" font-size="9" font-weight="500" fill="#8B929C" text-anchor="start" letter-spacing="1.4">WATCH</text><text x="200" y="37" font-family="'Inter', 'Helvetica Neue', Arial, sans-serif" font-size="13" font-weight="600" fill="#1A1D22" text-anchor="start">Monitors</text><text x="280" y="37" font-family="'Inter', 'Helvetica Neue', Arial, sans-serif" font-size="13" font-weight="400" fill="#8B929C" text-anchor="start">Incidents</text><text x="362" y="37" font-family="'Inter', 'Helvetica Neue', Arial, sans-serif" font-size="13" font-weight="400" fill="#8B929C" text-anchor="start">Status page</text><line x1="200" y1="63" x2="258" y2="63" stroke="#3B62D6" stroke-width="2"/><text x="1310" y="37" font-family="'JetBrains Mono', 'SF Mono', Consolas, monospace" font-size="12" font-weight="400" fill="#8B929C" text-anchor="start">demo@vigil</text><circle cx="1388" cy="32" r="14" fill="#E4E7EB"/><text x="48" y="118" font-family="'Inter', 'Helvetica Neue', Arial, sans-serif" font-size="12" font-weight="400" fill="#8B929C" text-anchor="start">←  Back to dashboard</text><text x="48" y="158" font-family="'Inter', 'Helvetica Neue', Arial, sans-serif" font-size="27" font-weight="700" fill="#1A1D22" text-anchor="start">Checkout API</text><text x="48" y="182" font-family="'JetBrains Mono', 'SF Mono', Consolas, monospace" font-size="11" font-weight="400" fill="#8B929C" text-anchor="start">GET https://api.example.com/health  ·  every 60s</text><rect x="48" y="200" width="33.2" height="22" rx="11" fill="none" stroke="#1F9D6B" stroke-width="1"/><circle cx="59" cy="211" r="3.2" fill="#1F9D6B"/><text x="68" y="215" font-family="'JetBrains Mono', 'SF Mono', Consolas, monospace" font-size="9" font-weight="500" fill="#1F9D6B" text-anchor="start" letter-spacing="1.2">UP</text><rect x="1220" y="148" width="172" height="40" rx="5" fill="#FFFFFF" stroke="#D7DBE0" stroke-width="1"/><text x="1306.0" y="172.0" font-family="'Inter', 'Helvetica Neue', Arial, sans-serif" font-size="13" font-weight="600" fill="#1A1D22" text-anchor="middle">Edit monitor</text><rect x="48" y="248" width="1344" height="84" rx="6" fill="#FFFFFF" stroke="#D7DBE0" stroke-width="1"/><text x="70.0" y="280" font-family="'JetBrains Mono', 'SF Mono', Consolas, monospace" font-size="9" font-weight="500" fill="#8B929C" text-anchor="start" letter-spacing="1.4">STATUS</text><text x="70.0" y="310" font-family="'Inter', 'Helvetica Neue', Arial, sans-serif" font-size="25" font-weight="700" fill="#1F9D6B" text-anchor="start">UP</text><line x1="384.0" y1="264" x2="384.0" y2="316" stroke="#D7DBE0" stroke-width="1"/><text x="406.0" y="280" font-family="'JetBrains Mono', 'SF Mono', Consolas, monospace" font-size="9" font-weight="500" fill="#8B929C" text-anchor="start" letter-spacing="1.4">UPTIME 24H</text><text x="406.0" y="310" font-family="'Inter', 'Helvetica Neue', Arial, sans-serif" font-size="25" font-weight="700" fill="#1A1D22" text-anchor="start">99.94%</text><line x1="720.0" y1="264" x2="720.0" y2="316" stroke="#D7DBE0" stroke-width="1"/><text x="742.0" y="280" font-family="'JetBrains Mono', 'SF Mono', Consolas, monospace" font-size="9" font-weight="500" fill="#8B929C" text-anchor="start" letter-spacing="1.4">AVG RESPONSE</text><text x="742.0" y="310" font-family="'Inter', 'Helvetica Neue', Arial, sans-serif" font-size="25" font-weight="700" fill="#1A1D22" text-anchor="start">210 ms</text><line x1="1056.0" y1="264" x2="1056.0" y2="316" stroke="#D7DBE0" stroke-width="1"/><text x="1078.0" y="280" font-family="'JetBrains Mono', 'SF Mono', Consolas, monospace" font-size="9" font-weight="500" fill="#8B929C" text-anchor="start" letter-spacing="1.4">FAILED CHECKS</text><text x="1078.0" y="310" font-family="'Inter', 'Helvetica Neue', Arial, sans-serif" font-size="25" font-weight="700" fill="#D2405A" text-anchor="start">3</text><text x="48" y="382" font-family="'Inter', 'Helvetica Neue', Arial, sans-serif" font-size="15" font-weight="700" fill="#1A1D22" text-anchor="start">Response time, last 24 hours</text><text x="1392" y="382" font-family="'JetBrains Mono', 'SF Mono', Consolas, monospace" font-size="11" font-weight="400" fill="#8B929C" text-anchor="end">24 H   ·   7 D   ·   30 D</text><rect x="48" y="398" width="1344" height="234" rx="6" fill="#FFFFFF" stroke="#D7DBE0" stroke-width="1"/><line x1="80" y1="472.5" x2="1360" y2="472.5" stroke="#EDEFF2" stroke-width="1"/><line x1="80" y1="515.0" x2="1360" y2="515.0" stroke="#EDEFF2" stroke-width="1"/><line x1="80" y1="557.5" x2="1360" y2="557.5" stroke="#EDEFF2" stroke-width="1"/><polyline points="80.0,549.0 124.1,552.4 168.3,542.2 212.4,547.3 256.6,550.7 300.7,538.8 344.8,543.9 389.0,549.0 433.1,528.6 477.2,535.4 521.4,547.3 565.5,550.7 609.7,543.9 653.8,549.0 697.9,540.5 742.1,484.4 786.2,450.4 830.3,440.2 874.5,477.6 918.6,530.3 962.8,543.9 1006.9,549.0 1051.0,552.4 1095.2,547.3 1139.3,549.0 1183.4,542.2 1227.6,550.7 1271.7,545.6 1315.9,549.0 1360.0,552.4" fill="none" stroke="#3B62D6" stroke-width="2"/><line x1="786.2068965517242" y1="430" x2="786.2068965517242" y2="600" stroke="#D2405A" stroke-width="1.5" stroke-dasharray="3 3"/><text x="794.2068965517242" y="446" font-family="'JetBrains Mono', 'SF Mono', Consolas, monospace" font-size="9" font-weight="500" fill="#D2405A" text-anchor="start">failed check</text><text x="52" y="438" font-family="'JetBrains Mono', 'SF Mono', Consolas, monospace" font-size="9" font-weight="400" fill="#8B929C" text-anchor="start">1.2 s</text><text x="52" y="600" font-family="'JetBrains Mono', 'SF Mono', Consolas, monospace" font-size="9" font-weight="400" fill="#8B929C" text-anchor="start">0 ms</text><text x="48" y="672" font-family="'Inter', 'Helvetica Neue', Arial, sans-serif" font-size="15" font-weight="700" fill="#1A1D22" text-anchor="start">Latest checks</text><rect x="48" y="690" width="1344" height="134" rx="6" fill="#FFFFFF" stroke="#D7DBE0" stroke-width="1"/><text x="76" y="716" font-family="'JetBrains Mono', 'SF Mono', Consolas, monospace" font-size="11" font-weight="400" fill="#4A5058" text-anchor="start">14s ago      200 OK        198 ms</text><text x="76" y="746" font-family="'JetBrains Mono', 'SF Mono', Consolas, monospace" font-size="11" font-weight="400" fill="#4A5058" text-anchor="start">1m ago       200 OK        204 ms</text><text x="76" y="776" font-family="'JetBrains Mono', 'SF Mono', Consolas, monospace" font-size="11" font-weight="400" fill="#D2405A" text-anchor="start">2m ago       Expected 200, got 503        no response</text><text x="76" y="806" font-family="'JetBrains Mono', 'SF Mono', Consolas, monospace" font-size="11" font-weight="400" fill="#4A5058" text-anchor="start">3m ago       200 OK        211 ms</text><rect x="48" y="844" width="176" height="34" rx="5" fill="#FFFFFF" stroke="#D7DBE0" stroke-width="1"/><text x="136.0" y="865.0" font-family="'Inter', 'Helvetica Neue', Arial, sans-serif" font-size="13" font-weight="600" fill="#1A1D22" text-anchor="middle">Show on status page</text><rect x="236" y="844" width="136" height="34" rx="5" fill="#FFFFFF" stroke="#D7DBE0" stroke-width="1"/><text x="304.0" y="865.0" font-family="'Inter', 'Helvetica Neue', Arial, sans-serif" font-size="13" font-weight="600" fill="#1A1D22" text-anchor="middle">Stop watching</text>
</g>
</svg>