<svg xmlns="http://www.w3.org/2000/svg" width="1620" height="960" viewBox="0 0 1620 960">
<defs><marker id="head-3F4650" viewBox="0 0 10 10" refX="9" refY="5" markerWidth="6" markerHeight="6" orient="auto-start-reverse"><path d="M0,1 L9,5 L0,9 z" fill="#3F4650"/></marker><marker id="head-3F4650-r" viewBox="0 0 10 10" refX="9" refY="5" markerWidth="6" markerHeight="6" orient="auto-start-reverse"><path d="M0,1 L9,5 L0,9 z" fill="#3F4650"/></marker><marker id="head-2B5CD9" viewBox="0 0 10 10" refX="9" refY="5" markerWidth="6" markerHeight="6" orient="auto-start-reverse"><path d="M0,1 L9,5 L0,9 z" fill="#2B5CD9"/></marker><marker id="head-2B5CD9-r" viewBox="0 0 10 10" refX="9" refY="5" markerWidth="6" markerHeight="6" orient="auto-start-reverse"><path d="M0,1 L9,5 L0,9 z" fill="#2B5CD9"/></marker><marker id="head-0E7C5A" viewBox="0 0 10 10" refX="9" refY="5" markerWidth="6" markerHeight="6" orient="auto-start-reverse"><path d="M0,1 L9,5 L0,9 z" fill="#0E7C5A"/></marker><marker id="head-0E7C5A-r" viewBox="0 0 10 10" refX="9" refY="5" markerWidth="6" markerHeight="6" orient="auto-start-reverse"><path d="M0,1 L9,5 L0,9 z" fill="#0E7C5A"/></marker><marker id="head-6A4BC4" viewBox="0 0 10 10" refX="9" refY="5" markerWidth="6" markerHeight="6" orient="auto-start-reverse"><path d="M0,1 L9,5 L0,9 z" fill="#6A4BC4"/></marker><marker id="head-6A4BC4-r" viewBox="0 0 10 10" refX="9" refY="5" markerWidth="6" markerHeight="6" orient="auto-start-reverse"><path d="M0,1 L9,5 L0,9 z" fill="#6A4BC4"/></marker><marker id="head-C0392B" viewBox="0 0 10 10" refX="9" refY="5" markerWidth="6" markerHeight="6" orient="auto-start-reverse"><path d="M0,1 L9,5 L0,9 z" fill="#C0392B"/></marker><marker id="head-C0392B-r" viewBox="0 0 10 10" refX="9" refY="5" markerWidth="6" markerHeight="6" orient="auto-start-reverse"><path d="M0,1 L9,5 L0,9 z" fill="#C0392B"/></marker><marker id="head-8E44AD" viewBox="0 0 10 10" refX="9" refY="5" markerWidth="6" markerHeight="6" orient="auto-start-reverse"><path d="M0,1 L9,5 L0,9 z" fill="#8E44AD"/></marker><marker id="head-8E44AD-r" viewBox="0 0 10 10" refX="9" refY="5" markerWidth="6" markerHeight="6" orient="auto-start-reverse"><path d="M0,1 L9,5 L0,9 z" fill="#8E44AD"/></marker><marker id="head-B8860B" viewBox="0 0 10 10" refX="9" refY="5" markerWidth="6" markerHeight="6" orient="auto-start-reverse"><path d="M0,1 L9,5 L0,9 z" fill="#B8860B"/></marker><marker id="head-B8860B-r" viewBox="0 0 10 10" refX="9" refY="5" markerWidth="6" markerHeight="6" orient="auto-start-reverse"><path d="M0,1 L9,5 L0,9 z" fill="#B8860B"/></marker><marker id="head-79818D" viewBox="0 0 10 10" refX="9" refY="5" markerWidth="6" markerHeight="6" orient="auto-start-reverse"><path d="M0,1 L9,5 L0,9 z" fill="#79818D"/></marker><marker id="head-79818D-r" viewBox="0 0 10 10" refX="9" refY="5" markerWidth="6" markerHeight="6" orient="auto-start-reverse"><path d="M0,1 L9,5 L0,9 z" fill="#79818D"/></marker></defs>
<rect width="1620" height="960" fill="#F6F7F9"/>
<text x="48" y="54" font-family="'Segoe UI', 'Helvetica Neue', Arial, sans-serif" font-size="26" font-weight="700" fill="#12161C" text-anchor="start">Vigil — System Architecture</text>
<text x="48" y="82" font-family="'Segoe UI', 'Helvetica Neue', Arial, sans-serif" font-size="13" font-weight="400" fill="#79818D" text-anchor="start">Request flow: client → edge → frontend → backend → cache / database, with an independent probe worker reaching monitored endpoints</text>
<line x1="48" y1="100" x2="1572" y2="100" stroke="#C9CFD7" stroke-width="1"/>
<rect x="470" y="146" width="880" height="676" rx="10" fill="#FFFFFF" stroke="#79818D" stroke-width="2" stroke-dasharray="9 6"/>
<text x="488" y="172" font-family="'Consolas', 'SF Mono', monospace" font-size="11.5" font-weight="700" fill="#79818D" text-anchor="start" letter-spacing="0.6">DEPLOYMENT HOST — Raspberry Pi 5 (Ubuntu Server)</text>
<text x="488" y="190" font-family="'Segoe UI', 'Helvetica Neue', Arial, sans-serif" font-size="11" font-weight="400" fill="#79818D" text-anchor="start">Docker Compose · bridge network: vigil_default · 5 containers</text>
<rect x="60" y="212" width="175" height="78" rx="6" fill="#EEF3FE" stroke="#2B5CD9" stroke-width="2"/><text x="74" y="238" font-family="'Segoe UI', 'Helvetica Neue', Arial, sans-serif" font-size="15" font-weight="700" fill="#2B5CD9">Dashboard user</text><text x="74" y="260" font-family="'Segoe UI', 'Helvetica Neue', Arial, sans-serif" font-size="11.5" fill="#3F4650">Signed-in operator</text><text x="74" y="277" font-family="'Segoe UI', 'Helvetica Neue', Arial, sans-serif" font-size="11.5" fill="#3F4650">Chrome / Firefox</text>
<rect x="60" y="344" width="175" height="78" rx="6" fill="#EEF3FE" stroke="#2B5CD9" stroke-width="2"/><text x="74" y="370" font-family="'Segoe UI', 'Helvetica Neue', Arial, sans-serif" font-size="15" font-weight="700" fill="#2B5CD9">Public visitor</text><text x="74" y="392" font-family="'Segoe UI', 'Helvetica Neue', Arial, sans-serif" font-size="11.5" fill="#3F4650">No account</text><text x="74" y="409" font-family="'Segoe UI', 'Helvetica Neue', Arial, sans-serif" font-size="11.5" fill="#3F4650">Reads status page</text>
<rect x="282" y="212" width="158" height="78" rx="6" fill="#FBF4E3" stroke="#B8860B" stroke-width="2"/><text x="296" y="238" font-family="'Segoe UI', 'Helvetica Neue', Arial, sans-serif" font-size="15" font-weight="700" fill="#B8860B">Cloudflare</text><text x="296" y="260" font-family="'Segoe UI', 'Helvetica Neue', Arial, sans-serif" font-size="11.5" fill="#3F4650">Tunnel · DNS</text><text x="296" y="277" font-family="'Segoe UI', 'Helvetica Neue', Arial, sans-serif" font-size="11.5" fill="#3F4650">TLS · DDoS</text>
<rect x="282" y="344" width="158" height="78" rx="6" fill="#FBF4E3" stroke="#B8860B" stroke-width="2"/><text x="296" y="370" font-family="'Segoe UI', 'Helvetica Neue', Arial, sans-serif" font-size="15" font-weight="700" fill="#B8860B">Caddy</text><text x="296" y="392" font-family="'Segoe UI', 'Helvetica Neue', Arial, sans-serif" font-size="11.5" fill="#3F4650">Reverse proxy</text><text x="296" y="409" font-family="'Segoe UI', 'Helvetica Neue', Arial, sans-serif" font-size="11.5" fill="#3F4650">Routes /api/*</text>
<rect x="512" y="236" width="196" height="122" rx="6" fill="#EEF3FE" stroke="#2B5CD9" stroke-width="2"/><text x="526" y="262" font-family="'Segoe UI', 'Helvetica Neue', Arial, sans-serif" font-size="15" font-weight="700" fill="#2B5CD9">web</text><text x="526" y="284" font-family="'Segoe UI', 'Helvetica Neue', Arial, sans-serif" font-size="11.5" fill="#3F4650">Next.js 15 App Router</text><text x="526" y="301" font-family="'Segoe UI', 'Helvetica Neue', Arial, sans-serif" font-size="11.5" fill="#3F4650">React 19 · TypeScript</text><text x="526" y="318" font-family="'Consolas', 'SF Mono', monospace" font-size="11.5" fill="#3F4650">node:22-alpine</text><text x="526" y="335" font-family="'Consolas', 'SF Mono', monospace" font-size="11.5" fill="#3F4650">port 3000</text>
<rect x="772" y="220" width="204" height="138" rx="6" fill="#E9F6F1" stroke="#0E7C5A" stroke-width="2"/><text x="786" y="246" font-family="'Segoe UI', 'Helvetica Neue', Arial, sans-serif" font-size="15" font-weight="700" fill="#0E7C5A">api</text><text x="786" y="268" font-family="'Segoe UI', 'Helvetica Neue', Arial, sans-serif" font-size="11.5" fill="#3F4650">FastAPI · Uvicorn</text><text x="786" y="285" font-family="'Segoe UI', 'Helvetica Neue', Arial, sans-serif" font-size="11.5" fill="#3F4650">SQLAlchemy 2.0 ORM</text><text x="786" y="302" font-family="'Consolas', 'SF Mono', monospace" font-size="11.5" fill="#3F4650">python:3.12-slim</text><text x="786" y="319" font-family="'Consolas', 'SF Mono', monospace" font-size="11.5" fill="#3F4650">port 8000</text>
<rect x="772" y="368" width="204" height="40" rx="5" fill="#E9F6F1" stroke="#0E7C5A" stroke-width="1.5" stroke-dasharray="5 3"/>
<text x="786" y="384" font-family="'Consolas', 'SF Mono', monospace" font-size="9.5" font-weight="700" fill="#0E7C5A" text-anchor="start" letter-spacing="0.8">AUTH LAYER</text>
<text x="786" y="399" font-family="'Segoe UI', 'Helvetica Neue', Arial, sans-serif" font-size="10" font-weight="400" fill="#3F4650" text-anchor="start">JWT HS256 · PBKDF2 password hashing</text>
<rect x="1058" y="200" width="214" height="112" rx="6" fill="#FBEDEB" stroke="#C0392B" stroke-width="2"/><text x="1072" y="226" font-family="'Segoe UI', 'Helvetica Neue', Arial, sans-serif" font-size="15" font-weight="700" fill="#C0392B">cache</text><text x="1072" y="248" font-family="'Segoe UI', 'Helvetica Neue', Arial, sans-serif" font-size="11.5" fill="#3F4650">Redis 7</text><text x="1072" y="265" font-family="'Consolas', 'SF Mono', monospace" font-size="11.5" fill="#3F4650">Response cache, TTL 15–30 s</text><text x="1072" y="282" font-family="'Consolas', 'SF Mono', monospace" font-size="11.5" fill="#3F4650">port 6379</text>
<rect x="1058" y="350" width="214" height="124" rx="6" fill="#F0ECFB" stroke="#6A4BC4" stroke-width="2"/><text x="1072" y="376" font-family="'Segoe UI', 'Helvetica Neue', Arial, sans-serif" font-size="15" font-weight="700" fill="#6A4BC4">db</text><text x="1072" y="398" font-family="'Segoe UI', 'Helvetica Neue', Arial, sans-serif" font-size="11.5" fill="#3F4650">PostgreSQL 16</text><text x="1072" y="415" font-family="'Consolas', 'SF Mono', monospace" font-size="11.5" fill="#3F4650">4 tables: users, monitors,</text><text x="1072" y="432" font-family="'Consolas', 'SF Mono', monospace" font-size="11.5" fill="#3F4650">checks, incidents</text><text x="1072" y="449" font-family="'Consolas', 'SF Mono', monospace" font-size="11.5" fill="#3F4650">port 5432</text>
<rect x="1108" y="516" width="164" height="66" rx="8" fill="#F0ECFB" stroke="#6A4BC4" stroke-width="2" stroke-dasharray="6 4"/>
<text x="1122" y="540" font-family="'Consolas', 'SF Mono', monospace" font-size="13" font-weight="700" fill="#6A4BC4" text-anchor="start">vigil_pgdata</text>
<text x="1122" y="560" font-family="'Segoe UI', 'Helvetica Neue', Arial, sans-serif" font-size="10.5" font-weight="400" fill="#3F4650" text-anchor="start">named volume — durable</text>
<rect x="512" y="574" width="236" height="130" rx="6" fill="#E9F6F1" stroke="#0E7C5A" stroke-width="2"/><text x="526" y="600" font-family="'Segoe UI', 'Helvetica Neue', Arial, sans-serif" font-size="15" font-weight="700" fill="#0E7C5A">worker</text><text x="526" y="622" font-family="'Segoe UI', 'Helvetica Neue', Arial, sans-serif" font-size="11.5" fill="#3F4650">Probe loop, 30 s tick</text><text x="526" y="639" font-family="'Segoe UI', 'Helvetica Neue', Arial, sans-serif" font-size="11.5" fill="#3F4650">httpx client</text><text x="526" y="656" font-family="'Segoe UI', 'Helvetica Neue', Arial, sans-serif" font-size="11.5" fill="#3F4650">Incident state machine</text><text x="526" y="673" font-family="'Segoe UI', 'Helvetica Neue', Arial, sans-serif" font-size="11.5" fill="#3F4650">Same image, worker target</text>
<rect x="1400" y="574" width="172" height="92" rx="6" fill="#F6EEFA" stroke="#8E44AD" stroke-width="2" stroke-dasharray="6 4"/><text x="1414" y="600" font-family="'Segoe UI', 'Helvetica Neue', Arial, sans-serif" font-size="15" font-weight="700" fill="#8E44AD">Monitored</text><text x="1414" y="622" font-family="'Segoe UI', 'Helvetica Neue', Arial, sans-serif" font-size="11.5" fill="#3F4650">endpoints</text><text x="1414" y="639" font-family="'Segoe UI', 'Helvetica Neue', Arial, sans-serif" font-size="11.5" fill="#3F4650">Customer sites</text><text x="1414" y="656" font-family="'Segoe UI', 'Helvetica Neue', Arial, sans-serif" font-size="11.5" fill="#3F4650">and APIs</text>
<rect x="1400" y="700" width="172" height="92" rx="6" fill="#F6EEFA" stroke="#8E44AD" stroke-width="2" stroke-dasharray="6 4"/><text x="1414" y="726" font-family="'Segoe UI', 'Helvetica Neue', Arial, sans-serif" font-size="15" font-weight="700" fill="#8E44AD">Alerting</text><text x="1414" y="748" font-family="'Segoe UI', 'Helvetica Neue', Arial, sans-serif" font-size="11.5" fill="#3F4650">SMTP email</text><text x="1414" y="765" font-family="'Segoe UI', 'Helvetica Neue', Arial, sans-serif" font-size="11.5" fill="#3F4650">Slack webhook</text>
<rect x="1400" y="212" width="172" height="78" rx="6" fill="#F6F7F9" stroke="#79818D" stroke-width="2"/><text x="1414" y="238" font-family="'Segoe UI', 'Helvetica Neue', Arial, sans-serif" font-size="15" font-weight="700" fill="#79818D">GitHub Actions</text><text x="1414" y="260" font-family="'Segoe UI', 'Helvetica Neue', Arial, sans-serif" font-size="11.5" fill="#3F4650">pytest · next build</text><text x="1414" y="277" font-family="'Segoe UI', 'Helvetica Neue', Arial, sans-serif" font-size="11.5" fill="#3F4650">docker build</text>
<rect x="1400" y="330" width="172" height="78" rx="6" fill="#F6F7F9" stroke="#79818D" stroke-width="2"/><text x="1414" y="356" font-family="'Segoe UI', 'Helvetica Neue', Arial, sans-serif" font-size="15" font-weight="700" fill="#79818D">GHCR</text><text x="1414" y="378" font-family="'Segoe UI', 'Helvetica Neue', Arial, sans-serif" font-size="11.5" fill="#3F4650">Image registry</text><text x="1414" y="395" font-family="'Segoe UI', 'Helvetica Neue', Arial, sans-serif" font-size="11.5" fill="#3F4650">compose pull</text>
<path d="M235,251 L282,251" fill="none" stroke="#2B5CD9" stroke-width="2" marker-end="url(#head-2B5CD9)"/>
<rect x="236.0" y="232" width="44.0" height="18" rx="4" fill="#FFFFFF" opacity="0.95"/><text x="258" y="245" font-family="'Consolas', 'SF Mono', monospace" font-size="10.5" font-weight="600" fill="#2B5CD9" text-anchor="middle">HTTPS</text>
<path d="M235,383 L282,383" fill="none" stroke="#2B5CD9" stroke-width="2" marker-end="url(#head-2B5CD9)"/>
<rect x="236.0" y="364" width="44.0" height="18" rx="4" fill="#FFFFFF" opacity="0.95"/><text x="258" y="377" font-family="'Consolas', 'SF Mono', monospace" font-size="10.5" font-weight="600" fill="#2B5CD9" text-anchor="middle">HTTPS</text>
<path d="M361,290 L361,344" fill="none" stroke="#B8860B" stroke-width="2" marker-end="url(#head-B8860B)"/>
<path d="M440,290 L476,290 L476,297 L512,297" fill="none" stroke="#B8860B" stroke-width="2" marker-end="url(#head-B8860B)"/>
<path d="M440,383 L476,383 L476,320 L512,320" fill="none" stroke="#B8860B" stroke-width="2" marker-end="url(#head-B8860B)"/>
<path d="M708,290 L772,290" fill="none" stroke="#2B5CD9" stroke-width="2.5" marker-end="url(#head-2B5CD9)"/>
<rect x="703.0" y="196" width="74.0" height="18" rx="4" fill="#FFFFFF" opacity="0.95"/><text x="740" y="209" font-family="'Consolas', 'SF Mono', monospace" font-size="10.5" font-weight="600" fill="#2B5CD9" text-anchor="middle">REST + JWT</text>
<path d="M976,256 L1058,256" fill="none" stroke="#C0392B" stroke-width="2" marker-end="url(#head-C0392B)" marker-start="url(#head-C0392B-r)"/>
<rect x="977.0" y="222" width="80.0" height="18" rx="4" fill="#FFFFFF" opacity="0.95"/><text x="1017" y="235" font-family="'Consolas', 'SF Mono', monospace" font-size="10.5" font-weight="600" fill="#C0392B" text-anchor="middle">GET / SETEX</text>
<path d="M976,330 L1012,330 L1012,412 L1058,412" fill="none" stroke="#6A4BC4" stroke-width="2" marker-end="url(#head-6A4BC4)" marker-start="url(#head-6A4BC4-r)"/>
<rect x="940.0" y="484" width="116.0" height="18" rx="4" fill="#FFFFFF" opacity="0.95"/><text x="998" y="497" font-family="'Consolas', 'SF Mono', monospace" font-size="10.5" font-weight="600" fill="#6A4BC4" text-anchor="middle">SQL on cache miss</text>
<path d="M1165,474 L1165,516" fill="none" stroke="#6A4BC4" stroke-width="2" stroke-dasharray="6 4" marker-end="url(#head-6A4BC4)"/>
<rect x="1187.0" y="486" width="56.0" height="18" rx="4" fill="#FFFFFF" opacity="0.95"/><text x="1215" y="499" font-family="'Consolas', 'SF Mono', monospace" font-size="10.5" font-weight="600" fill="#6A4BC4" text-anchor="middle">persist</text>
<path d="M748,620 L900,620 L900,452 L1058,452" fill="none" stroke="#6A4BC4" stroke-width="2" marker-end="url(#head-6A4BC4)"/>
<rect x="798.0" y="588" width="164.0" height="18" rx="4" fill="#FFFFFF" opacity="0.95"/><text x="880" y="601" font-family="'Consolas', 'SF Mono', monospace" font-size="10.5" font-weight="600" fill="#6A4BC4" text-anchor="middle">INSERT checks · incidents</text>
<path d="M748,590 L1020,590 L1020,312" fill="none" stroke="#C0392B" stroke-width="2" stroke-dasharray="5 4" marker-end="url(#head-C0392B)"/>
<rect x="983.0" y="328" width="74.0" height="18" rx="4" fill="#FFFFFF" opacity="0.95"/><text x="1020" y="341" font-family="'Consolas', 'SF Mono', monospace" font-size="10.5" font-weight="600" fill="#C0392B" text-anchor="middle">invalidate</text>
<path d="M748,650 L1400,650" fill="none" stroke="#8E44AD" stroke-width="2.5" marker-end="url(#head-8E44AD)"/>
<rect x="983.0" y="626" width="194.0" height="18" rx="4" fill="#FFFFFF" opacity="0.95"/><text x="1080" y="639" font-family="'Consolas', 'SF Mono', monospace" font-size="10.5" font-weight="600" fill="#8E44AD" text-anchor="middle">outbound HTTP probe every 30 s</text>
<path d="M748,690 L1340,690 L1340,746 L1400,746" fill="none" stroke="#8E44AD" stroke-width="2" stroke-dasharray="5 4" marker-end="url(#head-8E44AD)"/>
<rect x="1001.0" y="694" width="158.0" height="18" rx="4" fill="#FFFFFF" opacity="0.95"/><text x="1080" y="707" font-family="'Consolas', 'SF Mono', monospace" font-size="10.5" font-weight="600" fill="#8E44AD" text-anchor="middle">on incident open / close</text>
<path d="M1486,290 L1486,330" fill="none" stroke="#79818D" stroke-width="2" stroke-dasharray="5 4" marker-end="url(#head-79818D)"/>
<path d="M1400,369 L1350,369" fill="none" stroke="#79818D" stroke-width="2" stroke-dasharray="5 4" marker-end="url(#head-79818D)"/>
<rect x="1347.0" y="336" width="50.0" height="18" rx="4" fill="#FFFFFF" opacity="0.95"/><text x="1372" y="349" font-family="'Consolas', 'SF Mono', monospace" font-size="10.5" font-weight="600" fill="#79818D" text-anchor="middle">deploy</text>
<rect x="60" y="574" width="360" height="248" rx="8" fill="#FFFFFF" stroke="#C9CFD7" stroke-width="1.5"/>
<text x="80" y="602" font-family="'Consolas', 'SF Mono', monospace" font-size="11" font-weight="700" fill="#79818D" text-anchor="start" letter-spacing="1.2">LEGEND</text>
<rect x="80" y="613" width="22" height="15" rx="3" fill="#EEF3FE" stroke="#2B5CD9" stroke-width="1.8"/>
<text x="112" y="624" font-family="'Segoe UI', 'Helvetica Neue', Arial, sans-serif" font-size="11.5" font-weight="400" fill="#3F4650" text-anchor="start">Presentation tier — browser-facing</text>
<rect x="80" y="639" width="22" height="15" rx="3" fill="#E9F6F1" stroke="#0E7C5A" stroke-width="1.8"/>
<text x="112" y="650" font-family="'Segoe UI', 'Helvetica Neue', Arial, sans-serif" font-size="11.5" font-weight="400" fill="#3F4650" text-anchor="start">Application tier — Python services</text>
<rect x="80" y="665" width="22" height="15" rx="3" fill="#F0ECFB" stroke="#6A4BC4" stroke-width="1.8"/>
<text x="112" y="676" font-family="'Segoe UI', 'Helvetica Neue', Arial, sans-serif" font-size="11.5" font-weight="400" fill="#3F4650" text-anchor="start">Persistence tier — Postgres + volume</text>
<rect x="80" y="691" width="22" height="15" rx="3" fill="#FBEDEB" stroke="#C0392B" stroke-width="1.8"/>
<text x="112" y="702" font-family="'Segoe UI', 'Helvetica Neue', Arial, sans-serif" font-size="11.5" font-weight="400" fill="#3F4650" text-anchor="start">Cache tier — Redis, 15–30 s TTL</text>
<rect x="80" y="717" width="22" height="15" rx="3" fill="#F6EEFA" stroke="#8E44AD" stroke-width="1.8"/>
<text x="112" y="728" font-family="'Segoe UI', 'Helvetica Neue', Arial, sans-serif" font-size="11.5" font-weight="400" fill="#3F4650" text-anchor="start">External / third-party services</text>
<rect x="80" y="743" width="22" height="15" rx="3" fill="#FBF4E3" stroke="#B8860B" stroke-width="1.8"/>
<text x="112" y="754" font-family="'Segoe UI', 'Helvetica Neue', Arial, sans-serif" font-size="11.5" font-weight="400" fill="#3F4650" text-anchor="start">Edge tier — TLS and routing</text>
<line x1="80" y1="790" x2="400" y2="790" stroke="#C9CFD7"/>
<path d="M80,806 L104,806" stroke="#3F4650" stroke-width="2" marker-end="url(#head-3F4650)"/>
<text x="112" y="810" font-family="'Segoe UI', 'Helvetica Neue', Arial, sans-serif" font-size="11" font-weight="400" fill="#3F4650" text-anchor="start">Solid = synchronous request path</text>
<path d="M80,806 L104,806" stroke="none"/>
<path d="M80,822 L104,822" stroke="#3F4650" stroke-width="2" stroke-dasharray="5 4" marker-end="url(#head-3F4650)"/>
<text x="112" y="826" font-family="'Segoe UI', 'Helvetica Neue', Arial, sans-serif" font-size="11" font-weight="400" fill="#3F4650" text-anchor="start">Dashed = asynchronous / deploy path</text>
</svg>