<svg xmlns="http://www.w3.org/2000/svg" width="1440" height="976" viewBox="0 0 1440 976">
<rect x="0" y="0" width="1440" height="976" rx="0" fill="#F1F3F5"/>
<rect x="0" y="0" width="1440" height="76" rx="0" fill="#FFFFFF"/>
<line x1="0" y1="76" x2="1440" y2="76" stroke="#D7DBE0" stroke-width="1"/>
<text x="48" y="32" font-family="'JetBrains Mono', 'SF Mono', Consolas, monospace" font-size="10" font-weight="500" fill="#8B929C" text-anchor="start" letter-spacing="1.6">VIGIL / WIREFRAME 02</text>
<text x="48" y="55" font-family="'Inter', 'Helvetica Neue', Arial, sans-serif" font-size="19" font-weight="700" fill="#1A1D22" text-anchor="start">Dashboard — monitor list</text>
<text x="1392" y="47" font-family="'Inter', 'Helvetica Neue', Arial, sans-serif" font-size="12" font-weight="400" fill="#8B929C" text-anchor="end">Primary screen — US-05, US-08, US-09</text>
<g transform="translate(0,76)">
<rect x="0" y="0" width="1440" height="900" rx="0" fill="#F1F3F5"/>
<rect x="0" y="0" width="1440" height="64" rx="0" fill="#FFFFFF"/><line x1="0" y1="64" x2="1440" y2="64" stroke="#D7DBE0" stroke-width="1"/><circle cx="52" cy="32" r="5" fill="#3B62D6"/><text x="66" y="37" font-family="'Inter', 'Helvetica Neue', Arial, sans-serif" font-size="17" font-weight="700" fill="#1A1D22" text-anchor="start">Vigil</text><text x="112" y="37" font-family="'JetBrains Mono', 'SF Mono', Consolas, monospace" font-size="9" font-weight="500" fill="#8B929C" text-anchor="start" letter-spacing="1.4">WATCH</text><text x="200" y="37" font-family="'Inter', 'Helvetica Neue', Arial, sans-serif" font-size="13" font-weight="600" fill="#1A1D22" text-anchor="start">Monitors</text><text x="280" y="37" font-family="'Inter', 'Helvetica Neue', Arial, sans-serif" font-size="13" font-weight="400" fill="#8B929C" text-anchor="start">Incidents</text><text x="362" y="37" font-family="'Inter', 'Helvetica Neue', Arial, sans-serif" font-size="13" font-weight="400" fill="#8B929C" text-anchor="start">Status page</text><line x1="200" y1="63" x2="258" y2="63" stroke="#3B62D6" stroke-width="2"/><text x="1310" y="37" font-family="'JetBrains Mono', 'SF Mono', Consolas, monospace" font-size="12" font-weight="400" fill="#8B929C" text-anchor="start">demo@vigil</text><circle cx="1388" cy="32" r="14" fill="#E4E7EB"/><text x="48" y="122" font-family="'Inter', 'Helvetica Neue', Arial, sans-serif" font-size="27" font-weight="700" fill="#1A1D22" text-anchor="start">Everything you asked us to watch</text><text x="48" y="148" font-family="'JetBrains Mono', 'SF Mono', Consolas, monospace" font-size="9" font-weight="500" fill="#8B929C" text-anchor="start" letter-spacing="1.6">REFRESHED EVERY 15 SECONDS</text><rect x="1220" y="108" width="172" height="40" rx="5" fill="#3B62D6" stroke="#3B62D6" stroke-width="1"/><text x="1306.0" y="132.0" font-family="'Inter', 'Helvetica Neue', Arial, sans-serif" font-size="13" font-weight="600" fill="#FFFFFF" text-anchor="middle">Add monitor</text><rect x="48" y="186" width="1344" height="84" rx="6" fill="#FFFFFF" stroke="#D7DBE0" stroke-width="1"/><text x="70.0" y="218" font-family="'JetBrains Mono', 'SF Mono', Consolas, monospace" font-size="9" font-weight="500" fill="#8B929C" text-anchor="start" letter-spacing="1.4">MONITORS</text><text x="70.0" y="248" font-family="'Inter', 'Helvetica Neue', Arial, sans-serif" font-size="25" font-weight="700" fill="#1A1D22" text-anchor="start">4</text><line x1="384.0" y1="202" x2="384.0" y2="254" stroke="#D7DBE0" stroke-width="1"/><text x="406.0" y="218" font-family="'JetBrains Mono', 'SF Mono', Consolas, monospace" font-size="9" font-weight="500" fill="#8B929C" text-anchor="start" letter-spacing="1.4">HEALTHY</text><text x="406.0" y="248" font-family="'Inter', 'Helvetica Neue', Arial, sans-serif" font-size="25" font-weight="700" fill="#1F9D6B" text-anchor="start">2</text><line x1="720.0" y1="202" x2="720.0" y2="254" stroke="#D7DBE0" stroke-width="1"/><text x="742.0" y="218" font-family="'JetBrains Mono', 'SF Mono', Consolas, monospace" font-size="9" font-weight="500" fill="#8B929C" text-anchor="start" letter-spacing="1.4">OPEN INCIDENTS</text><text x="742.0" y="248" font-family="'Inter', 'Helvetica Neue', Arial, sans-serif" font-size="25" font-weight="700" fill="#D2405A" text-anchor="start">1</text><line x1="1056.0" y1="202" x2="1056.0" y2="254" stroke="#D7DBE0" stroke-width="1"/><text x="1078.0" y="218" font-family="'JetBrains Mono', 'SF Mono', Consolas, monospace" font-size="9" font-weight="500" fill="#8B929C" text-anchor="start" letter-spacing="1.4">AVG UPTIME 24H</text><text x="1078.0" y="248" font-family="'Inter', 'Helvetica Neue', Arial, sans-serif" font-size="25" font-weight="700" fill="#1A1D22" text-anchor="start">95.82%</text><text x="48" y="318" font-family="'Inter', 'Helvetica Neue', Arial, sans-serif" font-size="15" font-weight="700" fill="#1A1D22" text-anchor="start">Monitors</text><text x="1392" y="318" font-family="'Inter', 'Helvetica Neue', Arial, sans-serif" font-size="11" font-weight="400" fill="#8B929C" text-anchor="end">Sorted by name</text><rect x="48" y="340" width="1344" height="30" rx="0" fill="#FAFBFC" stroke="#D7DBE0" stroke-width="1"/><text x="72" y="360" font-family="'JetBrains Mono', 'SF Mono', Consolas, monospace" font-size="9" font-weight="500" fill="#8B929C" text-anchor="start" letter-spacing="1.4">SERVICE</text><text x="400" y="360" font-family="'JetBrains Mono', 'SF Mono', Consolas, monospace" font-size="9" font-weight="500" fill="#8B929C" text-anchor="start" letter-spacing="1.4">LAST 46 CHECKS</text><text x="1368" y="360" font-family="'JetBrains Mono', 'SF Mono', Consolas, monospace" font-size="9" font-weight="500" fill="#8B929C" text-anchor="end" letter-spacing="1.4">UPTIME / RESPONSE</text><rect x="48" y="370" width="1344" height="400" rx="0" fill="none" stroke="#D7DBE0" stroke-width="1"/><rect x="48" y="402" width="1344" height="92" rx="0" fill="#FFFFFF"/><line x1="48" y1="494" x2="1392" y2="494" stroke="#D7DBE0" stroke-width="1"/><text x="72" y="436" font-family="'Inter', 'Helvetica Neue', Arial, sans-serif" font-size="14" font-weight="600" fill="#1A1D22" text-anchor="start">Marketing site</text><text x="72" y="456" font-family="'JetBrains Mono', 'SF Mono', Consolas, monospace" font-size="11" font-weight="400" fill="#8B929C" text-anchor="start">https://example.com</text><rect x="72" y="464" width="33.2" height="22" rx="11" fill="none" stroke="#1F9D6B" stroke-width="1"/><circle cx="83" cy="475" r="3.2" fill="#1F9D6B"/><text x="92" y="479" font-family="'JetBrains Mono', 'SF Mono', Consolas, monospace" font-size="9" font-weight="500" fill="#1F9D6B" text-anchor="start" letter-spacing="1.2">UP</text><rect x="400.0" y="450" width="11.5" height="10" rx="1" fill="#1F9D6B" opacity="0.9"/><rect x="413.5" y="443" width="11.5" height="17" rx="1" fill="#1F9D6B" opacity="0.9"/><rect x="427.0" y="436" width="11.5" height="24" rx="1" fill="#1F9D6B" opacity="0.9"/><rect x="440.6" y="445" width="11.5" height="15" rx="1" fill="#1F9D6B" opacity="0.9"/><rect x="454.1" y="438" width="11.5" height="22" rx="1" fill="#1F9D6B" opacity="0.9"/><rect x="467.6" y="447" width="11.5" height="13" rx="1" fill="#1F9D6B" opacity="0.9"/><rect x="481.1" y="440" width="11.5" height="20" rx="1" fill="#1F9D6B" opacity="0.9"/><rect x="494.7" y="449" width="11.5" height="11" rx="1" fill="#1F9D6B" opacity="0.9"/><rect x="508.2" y="442" width="11.5" height="18" rx="1" fill="#1F9D6B" opacity="0.9"/><rect x="521.7" y="435" width="11.5" height="25" rx="1" fill="#1F9D6B" opacity="0.9"/><rect x="535.2" y="444" width="11.5" height="16" rx="1" fill="#1F9D6B" opacity="0.9"/><rect x="548.7" y="437" width="11.5" height="23" rx="1" fill="#1F9D6B" opacity="0.9"/><rect x="562.3" y="446" width="11.5" height="14" rx="1" fill="#1F9D6B" opacity="0.9"/><rect x="575.8" y="439" width="11.5" height="21" rx="1" fill="#1F9D6B" opacity="0.9"/><rect x="589.3" y="448" width="11.5" height="12" rx="1" fill="#1F9D6B" opacity="0.9"/><rect x="602.8" y="441" width="11.5" height="19" rx="1" fill="#1F9D6B" opacity="0.9"/><rect x="616.3" y="450" width="11.5" height="10" rx="1" fill="#1F9D6B" opacity="0.9"/><rect x="629.9" y="443" width="11.5" height="17" rx="1" fill="#1F9D6B" opacity="0.9"/><rect x="643.4" y="436" width="11.5" height="24" rx="1" fill="#1F9D6B" opacity="0.9"/><rect x="656.9" y="445" width="11.5" height="15" rx="1" fill="#1F9D6B" opacity="0.9"/><rect x="670.4" y="438" width="11.5" height="22" rx="1" fill="#1F9D6B" opacity="0.9"/><rect x="684.0" y="447" width="11.5" height="13" rx="1" fill="#1F9D6B" opacity="0.9"/><rect x="697.5" y="440" width="11.5" height="20" rx="1" fill="#1F9D6B" opacity="0.9"/><rect x="711.0" y="449" width="11.5" height="11" rx="1" fill="#1F9D6B" opacity="0.9"/><rect x="724.5" y="442" width="11.5" height="18" rx="1" fill="#1F9D6B" opacity="0.9"/><rect x="738.0" y="435" width="11.5" height="25" rx="1" fill="#1F9D6B" opacity="0.9"/><rect x="751.6" y="444" width="11.5" height="16" rx="1" fill="#1F9D6B" opacity="0.9"/><rect x="765.1" y="437" width="11.5" height="23" rx="1" fill="#1F9D6B" opacity="0.9"/><rect x="778.6" y="446" width="11.5" height="14" rx="1" fill="#1F9D6B" opacity="0.9"/><rect x="792.1" y="439" width="11.5" height="21" rx="1" fill="#1F9D6B" opacity="0.9"/><rect x="805.7" y="448" width="11.5" height="12" rx="1" fill="#1F9D6B" opacity="0.9"/><rect x="819.2" y="441" width="11.5" height="19" rx="1" fill="#1F9D6B" opacity="0.9"/><rect x="832.7" y="450" width="11.5" height="10" rx="1" fill="#1F9D6B" opacity="0.9"/><rect x="846.2" y="443" width="11.5" height="17" rx="1" fill="#1F9D6B" opacity="0.9"/><rect x="859.7" y="436" width="11.5" height="24" rx="1" fill="#1F9D6B" opacity="0.9"/><rect x="873.3" y="445" width="11.5" height="15" rx="1" fill="#1F9D6B" opacity="0.9"/><rect x="886.8" y="438" width="11.5" height="22" rx="1" fill="#1F9D6B" opacity="0.9"/><rect x="900.3" y="447" width="11.5" height="13" rx="1" fill="#1F9D6B" opacity="0.9"/><rect x="913.8" y="440" width="11.5" height="20" rx="1" fill="#1F9D6B" opacity="0.9"/><rect x="927.3" y="449" width="11.5" height="11" rx="1" fill="#1F9D6B" opacity="0.9"/><rect x="940.9" y="442" width="11.5" height="18" rx="1" fill="#1F9D6B" opacity="0.9"/><rect x="954.4" y="435" width="11.5" height="25" rx="1" fill="#1F9D6B" opacity="0.9"/><rect x="967.9" y="444" width="11.5" height="16" rx="1" fill="#1F9D6B" opacity="0.9"/><rect x="981.4" y="437" width="11.5" height="23" rx="1" fill="#1F9D6B" opacity="0.9"/><rect x="995.0" y="446" width="11.5" height="14" rx="1" fill="#1F9D6B" opacity="0.9"/><rect x="1008.5" y="439" width="11.5" height="21" rx="1" fill="#1F9D6B" opacity="0.9"/><text x="1120" y="424" font-family="'JetBrains Mono', 'SF Mono', Consolas, monospace" font-size="8" font-weight="500" fill="#8B929C" text-anchor="start" letter-spacing="1.4">LAST 24 H</text><text x="1368" y="444" font-family="'JetBrains Mono', 'SF Mono', Consolas, monospace" font-size="16" font-weight="500" fill="#1A1D22" text-anchor="end">100.00%</text><text x="1368" y="464" font-family="'JetBrains Mono', 'SF Mono', Consolas, monospace" font-size="10" font-weight="400" fill="#8B929C" text-anchor="end">182 ms</text><rect x="48" y="494" width="1344" height="92" rx="0" fill="#FFFFFF"/><line x1="48" y1="586" x2="1392" y2="586" stroke="#D7DBE0" stroke-width="1"/><text x="72" y="528" font-family="'Inter', 'Helvetica Neue', Arial, sans-serif" font-size="14" font-weight="600" fill="#1A1D22" text-anchor="start">Checkout API</text><text x="72" y="548" font-family="'JetBrains Mono', 'SF Mono', Consolas, monospace" font-size="11" font-weight="400" fill="#8B929C" text-anchor="start">https://api.example.com/health</text><rect x="72" y="556" width="33.2" height="22" rx="11" fill="none" stroke="#1F9D6B" stroke-width="1"/><circle cx="83" cy="567" r="3.2" fill="#1F9D6B"/><text x="92" y="571" font-family="'JetBrains Mono', 'SF Mono', Consolas, monospace" font-size="9" font-weight="500" fill="#1F9D6B" text-anchor="start" letter-spacing="1.2">UP</text><rect x="400.0" y="542" width="11.5" height="10" rx="1" fill="#1F9D6B" opacity="0.9"/><rect x="413.5" y="535" width="11.5" height="17" rx="1" fill="#1F9D6B" opacity="0.9"/><rect x="427.0" y="528" width="11.5" height="24" rx="1" fill="#1F9D6B" opacity="0.9"/><rect x="440.6" y="537" width="11.5" height="15" rx="1" fill="#1F9D6B" opacity="0.9"/><rect x="454.1" y="530" width="11.5" height="22" rx="1" fill="#1F9D6B" opacity="0.9"/><rect x="467.6" y="539" width="11.5" height="13" rx="1" fill="#1F9D6B" opacity="0.9"/><rect x="481.1" y="532" width="11.5" height="20" rx="1" fill="#1F9D6B" opacity="0.9"/><rect x="494.7" y="541" width="11.5" height="11" rx="1" fill="#1F9D6B" opacity="0.9"/><rect x="508.2" y="534" width="11.5" height="18" rx="1" fill="#1F9D6B" opacity="0.9"/><rect x="521.7" y="527" width="11.5" height="25" rx="1" fill="#1F9D6B" opacity="0.9"/><rect x="535.2" y="536" width="11.5" height="16" rx="1" fill="#1F9D6B" opacity="0.9"/><rect x="548.7" y="529" width="11.5" height="23" rx="1" fill="#1F9D6B" opacity="0.9"/><rect x="562.3" y="538" width="11.5" height="14" rx="1" fill="#1F9D6B" opacity="0.9"/><rect x="575.8" y="531" width="11.5" height="21" rx="1" fill="#1F9D6B" opacity="0.9"/><rect x="589.3" y="540" width="11.5" height="12" rx="1" fill="#1F9D6B" opacity="0.9"/><rect x="602.8" y="533" width="11.5" height="19" rx="1" fill="#1F9D6B" opacity="0.9"/><rect x="616.3" y="542" width="11.5" height="10" rx="1" fill="#1F9D6B" opacity="0.9"/><rect x="629.9" y="535" width="11.5" height="17" rx="1" fill="#1F9D6B" opacity="0.9"/><rect x="643.4" y="528" width="11.5" height="24" rx="1" fill="#1F9D6B" opacity="0.9"/><rect x="656.9" y="537" width="11.5" height="15" rx="1" fill="#1F9D6B" opacity="0.9"/><rect x="670.4" y="530" width="11.5" height="22" rx="1" fill="#1F9D6B" opacity="0.9"/><rect x="684.0" y="539" width="11.5" height="13" rx="1" fill="#1F9D6B" opacity="0.9"/><rect x="697.5" y="532" width="11.5" height="20" rx="1" fill="#1F9D6B" opacity="0.9"/><rect x="711.0" y="541" width="11.5" height="11" rx="1" fill="#1F9D6B" opacity="0.9"/><rect x="724.5" y="534" width="11.5" height="18" rx="1" fill="#1F9D6B" opacity="0.9"/><rect x="738.0" y="527" width="11.5" height="25" rx="1" fill="#1F9D6B" opacity="0.9"/><rect x="751.6" y="536" width="11.5" height="16" rx="1" fill="#1F9D6B" opacity="0.9"/><rect x="765.1" y="529" width="11.5" height="23" rx="1" fill="#1F9D6B" opacity="0.9"/><rect x="778.6" y="538" width="11.5" height="14" rx="1" fill="#1F9D6B" opacity="0.9"/><rect x="792.1" y="531" width="11.5" height="21" rx="1" fill="#1F9D6B" opacity="0.9"/><rect x="805.7" y="540" width="11.5" height="12" rx="1" fill="#1F9D6B" opacity="0.9"/><rect x="819.2" y="533" width="11.5" height="19" rx="1" fill="#1F9D6B" opacity="0.9"/><rect x="832.7" y="542" width="11.5" height="10" rx="1" fill="#1F9D6B" opacity="0.9"/><rect x="846.2" y="535" width="11.5" height="17" rx="1" fill="#1F9D6B" opacity="0.9"/><rect x="859.7" y="528" width="11.5" height="24" rx="1" fill="#1F9D6B" opacity="0.9"/><rect x="873.3" y="537" width="11.5" height="15" rx="1" fill="#1F9D6B" opacity="0.9"/><rect x="886.8" y="530" width="11.5" height="22" rx="1" fill="#1F9D6B" opacity="0.9"/><rect x="900.3" y="539" width="11.5" height="13" rx="1" fill="#1F9D6B" opacity="0.9"/><rect x="913.8" y="532" width="11.5" height="20" rx="1" fill="#1F9D6B" opacity="0.9"/><rect x="927.3" y="541" width="11.5" height="11" rx="1" fill="#1F9D6B" opacity="0.9"/><rect x="940.9" y="534" width="11.5" height="18" rx="1" fill="#1F9D6B" opacity="0.9"/><rect x="954.4" y="527" width="11.5" height="25" rx="1" fill="#1F9D6B" opacity="0.9"/><rect x="967.9" y="536" width="11.5" height="16" rx="1" fill="#1F9D6B" opacity="0.9"/><rect x="981.4" y="529" width="11.5" height="23" rx="1" fill="#1F9D6B" opacity="0.9"/><rect x="995.0" y="538" width="11.5" height="14" rx="1" fill="#1F9D6B" opacity="0.9"/><rect x="1008.5" y="531" width="11.5" height="21" rx="1" fill="#1F9D6B" opacity="0.9"/><text x="1120" y="516" font-family="'JetBrains Mono', 'SF Mono', Consolas, monospace" font-size="8" font-weight="500" fill="#8B929C" text-anchor="start" letter-spacing="1.4">LAST 24 H</text><text x="1368" y="536" font-family="'JetBrains Mono', 'SF Mono', Consolas, monospace" font-size="16" font-weight="500" fill="#1A1D22" text-anchor="end">99.94%</text><text x="1368" y="556" font-family="'JetBrains Mono', 'SF Mono', Consolas, monospace" font-size="10" font-weight="400" fill="#8B929C" text-anchor="end">210 ms</text><rect x="48" y="586" width="1344" height="92" rx="0" fill="#FFFFFF"/><line x1="48" y1="678" x2="1392" y2="678" stroke="#D7DBE0" stroke-width="1"/><text x="72" y="620" font-family="'Inter', 'Helvetica Neue', Arial, sans-serif" font-size="14" font-weight="600" fill="#1A1D22" text-anchor="start">Search service</text><text x="72" y="640" font-family="'JetBrains Mono', 'SF Mono', Consolas, monospace" font-size="11" font-weight="400" fill="#8B929C" text-anchor="start">https://search.example.com</text><rect x="72" y="648" width="72.8" height="22" rx="11" fill="none" stroke="#C98A15" stroke-width="1"/><circle cx="83" cy="659" r="3.2" fill="#C98A15"/><text x="92" y="663" font-family="'JetBrains Mono', 'SF Mono', Consolas, monospace" font-size="9" font-weight="500" fill="#C98A15" text-anchor="start" letter-spacing="1.2">DEGRADED</text><rect x="400.0" y="634" width="11.5" height="10" rx="1" fill="#C98A15" opacity="0.9"/><rect x="413.5" y="627" width="11.5" height="17" rx="1" fill="#1F9D6B" opacity="0.9"/><rect x="427.0" y="620" width="11.5" height="24" rx="1" fill="#1F9D6B" opacity="0.9"/><rect x="440.6" y="629" width="11.5" height="15" rx="1" fill="#1F9D6B" opacity="0.9"/><rect x="454.1" y="622" width="11.5" height="22" rx="1" fill="#1F9D6B" opacity="0.9"/><rect x="467.6" y="631" width="11.5" height="13" rx="1" fill="#1F9D6B" opacity="0.9"/><rect x="481.1" y="624" width="11.5" height="20" rx="1" fill="#1F9D6B" opacity="0.9"/><rect x="494.7" y="633" width="11.5" height="11" rx="1" fill="#C98A15" opacity="0.9"/><rect x="508.2" y="626" width="11.5" height="18" rx="1" fill="#1F9D6B" opacity="0.9"/><rect x="521.7" y="619" width="11.5" height="25" rx="1" fill="#1F9D6B" opacity="0.9"/><rect x="535.2" y="628" width="11.5" height="16" rx="1" fill="#1F9D6B" opacity="0.9"/><rect x="548.7" y="621" width="11.5" height="23" rx="1" fill="#1F9D6B" opacity="0.9"/><rect x="562.3" y="630" width="11.5" height="14" rx="1" fill="#1F9D6B" opacity="0.9"/><rect x="575.8" y="623" width="11.5" height="21" rx="1" fill="#1F9D6B" opacity="0.9"/><rect x="589.3" y="632" width="11.5" height="12" rx="1" fill="#C98A15" opacity="0.9"/><rect x="602.8" y="625" width="11.5" height="19" rx="1" fill="#1F9D6B" opacity="0.9"/><rect x="616.3" y="634" width="11.5" height="10" rx="1" fill="#1F9D6B" opacity="0.9"/><rect x="629.9" y="627" width="11.5" height="17" rx="1" fill="#1F9D6B" opacity="0.9"/><rect x="643.4" y="620" width="11.5" height="24" rx="1" fill="#1F9D6B" opacity="0.9"/><rect x="656.9" y="629" width="11.5" height="15" rx="1" fill="#1F9D6B" opacity="0.9"/><rect x="670.4" y="622" width="11.5" height="22" rx="1" fill="#1F9D6B" opacity="0.9"/><rect x="684.0" y="631" width="11.5" height="13" rx="1" fill="#C98A15" opacity="0.9"/><rect x="697.5" y="624" width="11.5" height="20" rx="1" fill="#1F9D6B" opacity="0.9"/><rect x="711.0" y="633" width="11.5" height="11" rx="1" fill="#1F9D6B" opacity="0.9"/><rect x="724.5" y="626" width="11.5" height="18" rx="1" fill="#1F9D6B" opacity="0.9"/><rect x="738.0" y="619" width="11.5" height="25" rx="1" fill="#1F9D6B" opacity="0.9"/><rect x="751.6" y="628" width="11.5" height="16" rx="1" fill="#1F9D6B" opacity="0.9"/><rect x="765.1" y="621" width="11.5" height="23" rx="1" fill="#1F9D6B" opacity="0.9"/><rect x="778.6" y="630" width="11.5" height="14" rx="1" fill="#C98A15" opacity="0.9"/><rect x="792.1" y="623" width="11.5" height="21" rx="1" fill="#1F9D6B" opacity="0.9"/><rect x="805.7" y="632" width="11.5" height="12" rx="1" fill="#1F9D6B" opacity="0.9"/><rect x="819.2" y="625" width="11.5" height="19" rx="1" fill="#1F9D6B" opacity="0.9"/><rect x="832.7" y="634" width="11.5" height="10" rx="1" fill="#1F9D6B" opacity="0.9"/><rect x="846.2" y="627" width="11.5" height="17" rx="1" fill="#1F9D6B" opacity="0.9"/><rect x="859.7" y="620" width="11.5" height="24" rx="1" fill="#1F9D6B" opacity="0.9"/><rect x="873.3" y="629" width="11.5" height="15" rx="1" fill="#C98A15" opacity="0.9"/><rect x="886.8" y="622" width="11.5" height="22" rx="1" fill="#1F9D6B" opacity="0.9"/><rect x="900.3" y="631" width="11.5" height="13" rx="1" fill="#1F9D6B" opacity="0.9"/><rect x="913.8" y="624" width="11.5" height="20" rx="1" fill="#1F9D6B" opacity="0.9"/><rect x="927.3" y="633" width="11.5" height="11" rx="1" fill="#1F9D6B" opacity="0.9"/><rect x="940.9" y="626" width="11.5" height="18" rx="1" fill="#1F9D6B" opacity="0.9"/><rect x="954.4" y="619" width="11.5" height="25" rx="1" fill="#1F9D6B" opacity="0.9"/><rect x="967.9" y="628" width="11.5" height="16" rx="1" fill="#C98A15" opacity="0.9"/><rect x="981.4" y="621" width="11.5" height="23" rx="1" fill="#1F9D6B" opacity="0.9"/><rect x="995.0" y="630" width="11.5" height="14" rx="1" fill="#1F9D6B" opacity="0.9"/><rect x="1008.5" y="623" width="11.5" height="21" rx="1" fill="#1F9D6B" opacity="0.9"/><text x="1120" y="608" font-family="'JetBrains Mono', 'SF Mono', Consolas, monospace" font-size="8" font-weight="500" fill="#8B929C" text-anchor="start" letter-spacing="1.4">LAST 24 H</text><text x="1368" y="628" font-family="'JetBrains Mono', 'SF Mono', Consolas, monospace" font-size="16" font-weight="500" fill="#1A1D22" text-anchor="end">99.12%</text><text x="1368" y="648" font-family="'JetBrains Mono', 'SF Mono', Consolas, monospace" font-size="10" font-weight="400" fill="#8B929C" text-anchor="end">2 409 ms</text><rect x="48" y="678" width="1344" height="92" rx="0" fill="#FFFFFF"/><line x1="48" y1="770" x2="1392" y2="770" stroke="#D7DBE0" stroke-width="1"/><text x="72" y="712" font-family="'Inter', 'Helvetica Neue', Arial, sans-serif" font-size="14" font-weight="600" fill="#1A1D22" text-anchor="start">Invoice worker</text><text x="72" y="732" font-family="'JetBrains Mono', 'SF Mono', Consolas, monospace" font-size="11" font-weight="400" fill="#8B929C" text-anchor="start">https://jobs.example.com/ping</text><rect x="72" y="740" width="46.4" height="22" rx="11" fill="none" stroke="#D2405A" stroke-width="1"/><circle cx="83" cy="751" r="3.2" fill="#D2405A"/><text x="92" y="755" font-family="'JetBrains Mono', 'SF Mono', Consolas, monospace" font-size="9" font-weight="500" fill="#D2405A" text-anchor="start" letter-spacing="1.2">DOWN</text><rect x="400.0" y="726" width="11.5" height="10" rx="1" fill="#1F9D6B" opacity="0.9"/><rect x="413.5" y="719" width="11.5" height="17" rx="1" fill="#1F9D6B" opacity="0.9"/><rect x="427.0" y="712" width="11.5" height="24" rx="1" fill="#1F9D6B" opacity="0.9"/><rect x="440.6" y="721" width="11.5" height="15" rx="1" fill="#1F9D6B" opacity="0.9"/><rect x="454.1" y="714" width="11.5" height="22" rx="1" fill="#1F9D6B" opacity="0.9"/><rect x="467.6" y="723" width="11.5" height="13" rx="1" fill="#1F9D6B" opacity="0.9"/><rect x="481.1" y="716" width="11.5" height="20" rx="1" fill="#1F9D6B" opacity="0.9"/><rect x="494.7" y="725" width="11.5" height="11" rx="1" fill="#1F9D6B" opacity="0.9"/><rect x="508.2" y="718" width="11.5" height="18" rx="1" fill="#1F9D6B" opacity="0.9"/><rect x="521.7" y="711" width="11.5" height="25" rx="1" fill="#1F9D6B" opacity="0.9"/><rect x="535.2" y="720" width="11.5" height="16" rx="1" fill="#1F9D6B" opacity="0.9"/><rect x="548.7" y="713" width="11.5" height="23" rx="1" fill="#1F9D6B" opacity="0.9"/><rect x="562.3" y="722" width="11.5" height="14" rx="1" fill="#1F9D6B" opacity="0.9"/><rect x="575.8" y="715" width="11.5" height="21" rx="1" fill="#1F9D6B" opacity="0.9"/><rect x="589.3" y="724" width="11.5" height="12" rx="1" fill="#1F9D6B" opacity="0.9"/><rect x="602.8" y="717" width="11.5" height="19" rx="1" fill="#1F9D6B" opacity="0.9"/><rect x="616.3" y="726" width="11.5" height="10" rx="1" fill="#1F9D6B" opacity="0.9"/><rect x="629.9" y="719" width="11.5" height="17" rx="1" fill="#1F9D6B" opacity="0.9"/><rect x="643.4" y="712" width="11.5" height="24" rx="1" fill="#1F9D6B" opacity="0.9"/><rect x="656.9" y="721" width="11.5" height="15" rx="1" fill="#1F9D6B" opacity="0.9"/><rect x="670.4" y="714" width="11.5" height="22" rx="1" fill="#1F9D6B" opacity="0.9"/><rect x="684.0" y="723" width="11.5" height="13" rx="1" fill="#1F9D6B" opacity="0.9"/><rect x="697.5" y="716" width="11.5" height="20" rx="1" fill="#1F9D6B" opacity="0.9"/><rect x="711.0" y="725" width="11.5" height="11" rx="1" fill="#1F9D6B" opacity="0.9"/><rect x="724.5" y="718" width="11.5" height="18" rx="1" fill="#1F9D6B" opacity="0.9"/><rect x="738.0" y="711" width="11.5" height="25" rx="1" fill="#1F9D6B" opacity="0.9"/><rect x="751.6" y="720" width="11.5" height="16" rx="1" fill="#1F9D6B" opacity="0.9"/><rect x="765.1" y="713" width="11.5" height="23" rx="1" fill="#1F9D6B" opacity="0.9"/><rect x="778.6" y="722" width="11.5" height="14" rx="1" fill="#1F9D6B" opacity="0.9"/><rect x="792.1" y="715" width="11.5" height="21" rx="1" fill="#1F9D6B" opacity="0.9"/><rect x="805.7" y="724" width="11.5" height="12" rx="1" fill="#1F9D6B" opacity="0.9"/><rect x="819.2" y="717" width="11.5" height="19" rx="1" fill="#1F9D6B" opacity="0.9"/><rect x="832.7" y="726" width="11.5" height="10" rx="1" fill="#1F9D6B" opacity="0.9"/><rect x="846.2" y="719" width="11.5" height="17" rx="1" fill="#1F9D6B" opacity="0.9"/><rect x="859.7" y="712" width="11.5" height="24" rx="1" fill="#1F9D6B" opacity="0.9"/><rect x="873.3" y="721" width="11.5" height="15" rx="1" fill="#1F9D6B" opacity="0.9"/><rect x="886.8" y="714" width="11.5" height="22" rx="1" fill="#1F9D6B" opacity="0.9"/><rect x="900.3" y="723" width="11.5" height="13" rx="1" fill="#1F9D6B" opacity="0.9"/><rect x="913.8" y="716" width="11.5" height="20" rx="1" fill="#D2405A" opacity="0.9"/><rect x="927.3" y="725" width="11.5" height="11" rx="1" fill="#D2405A" opacity="0.9"/><rect x="940.9" y="718" width="11.5" height="18" rx="1" fill="#D2405A" opacity="0.9"/><rect x="954.4" y="711" width="11.5" height="25" rx="1" fill="#D2405A" opacity="0.9"/><rect x="967.9" y="720" width="11.5" height="16" rx="1" fill="#D2405A" opacity="0.9"/><rect x="981.4" y="713" width="11.5" height="23" rx="1" fill="#D2405A" opacity="0.9"/><rect x="995.0" y="722" width="11.5" height="14" rx="1" fill="#D2405A" opacity="0.9"/><rect x="1008.5" y="715" width="11.5" height="21" rx="1" fill="#D2405A" opacity="0.9"/><text x="1120" y="700" font-family="'JetBrains Mono', 'SF Mono', Consolas, monospace" font-size="8" font-weight="500" fill="#8B929C" text-anchor="start" letter-spacing="1.4">LAST 24 H</text><text x="1368" y="720" font-family="'JetBrains Mono', 'SF Mono', Consolas, monospace" font-size="16" font-weight="500" fill="#1A1D22" text-anchor="end">84.21%</text><text x="1368" y="740" font-family="'JetBrains Mono', 'SF Mono', Consolas, monospace" font-size="10" font-weight="400" fill="#8B929C" text-anchor="end">no response</text><text x="72" y="800" font-family="'Inter', 'Helvetica Neue', Arial, sans-serif" font-size="11" font-weight="400" fill="#8B929C" text-anchor="start">Row click opens the monitor detail screen.</text><circle cx="1090" cy="796" r="9" fill="#3B62D6"/><text x="1090" y="800" font-family="'JetBrains Mono', 'SF Mono', Consolas, monospace" font-size="10" font-weight="700" fill="#FFFFFF" text-anchor="middle">1</text><text x="1106" y="800" font-family="'Inter', 'Helvetica Neue', Arial, sans-serif" font-size="11" font-weight="400" fill="#4A5058" text-anchor="start">Signature element: the check strip. One tick per</text><text x="1106" y="818" font-family="'Inter', 'Helvetica Neue', Arial, sans-serif" font-size="11" font-weight="400" fill="#4A5058" text-anchor="start">probe, coloured by outcome — outages are visible</text><text x="1106" y="834" font-family="'Inter', 'Helvetica Neue', Arial, sans-serif" font-size="11" font-weight="400" fill="#4A5058" text-anchor="start">at a glance without opening anything.</text>
</g>
</svg>